<?xml version="1.0" standalone="no"?>
<!DOCTYPE svg PUBLIC "-//W3C//DTD SVG 20010904//EN"
 "http://www.w3.org/TR/2001/REC-SVG-20010904/DTD/svg10.dtd">
<svg version="1.0" xmlns="http://www.w3.org/2000/svg"
 width="192.000000pt" height="192.000000pt" viewBox="0 0 192.000000 192.000000"
 preserveAspectRatio="xMidYMid meet">

<g transform="translate(0.000000,192.000000) scale(0.100000,-0.100000)"
fill="#000000" stroke="none">
<path d="M843 1910 c-422 -59 -737 -356 -824 -775 -19 -91 -16 -275 6 -375 24
-109 51 -140 121 -140 l48 0 356 354 c233 233 364 357 383 361 15 4 39 4 55 0
18 -4 150 -129 383 -361 l355 -354 48 0 c59 0 88 26 111 101 39 132 38 330 -1
484 -66 253 -261 492 -499 610 -159 79 -380 118 -542 95z"/>
<path d="M628 622 c-288 -287 -288 -287 -288 -330 0 -24 5 -52 10 -62 13 -24
104 -87 187 -129 126 -63 392 -118 442 -92 33 18 26 52 -20 96 -23 22 -68 70
-100 108 -53 61 -59 72 -59 112 0 41 5 51 53 99 55 57 89 73 134 61 17 -4 96
-74 204 -181 205 -203 203 -202 307 -135 70 46 82 64 82 123 0 43 0 43 -288
330 l-287 288 -45 0 -45 0 -287 -288z"/>
</g>
</svg>
